# xmcd
#
# Track frame offsets: 
#        150
#        13522
#        29077
#        44981
#        62844
#        74165
#        87531
#        99114
#        120413
#        129894
#        141689
#        153652
#        177957
#
# Disc length: 2544 seconds
#
# Revision: 0
# Processed by: cddbd v1.5.2PL0 Copyright (c) Steve Scherf et al.
# Submitted via: ExactAudioCopy v0.90b4
#
DISCID=c309ee0d
DTITLE=Son Jack Jr. - When The Devil Calls
DYEAR=2008
DGENRE=Acoustic Blues
TTITLE0=I'm Son Jack Jr.
TTITLE1=Dance of the Living Dead
TTITLE2=The Lynching Tree
TTITLE3=If I Should Fall
TTITLE4=Cleanhead Blues (Eddie Vinson)
TTITLE5=North Wind
TTITLE6=It Could Be Worse
TTITLE7=Sweet and Salty
TTITLE8=Soul of a Man (Blind Willie Johnson)
TTITLE9=It Don't Come Easy
TTITLE10=Poor Man Blues
TTITLE11=Devil Got my Woman (Skip James)
TTITLE12=When the Devil Calls
EXTD=
EXTT0=
EXTT1=
EXTT2=
EXTT3=
EXTT4=
EXTT5=
EXTT6=
EXTT7=
EXTT8=
EXTT9=
EXTT10=
EXTT11=
EXTT12=
PLAYORDER=
